<?xml version="1.0" encoding="UTF-8"?>
<svg id="Layer_2" data-name="Layer 2" xmlns="http://www.w3.org/2000/svg" viewBox="0 0 1400.35 912.78">
  <g id="_Layer_" data-name="&amp;lt;Layer&amp;gt;">
    <g>
      <g>
        <g>
          <path d="M581.05,301.5s17.64,34.14,16.98,86.22c-.65,52.07-60.74,20.25-60.74,20.25,0,0-1.96-68.58,0-70.54,1.96-1.96,43.76-35.92,43.76-35.92Z" style="fill: #c97e67; stroke-width: 0px;"/>
          <path d="M395.66,226.01l9.45-30.5,2.75-8.88,16.17-52.21,2.13,51.93,1.27,31.17.4,9.87c.27,6.7,4.36,8.1,9.32,13.93,2.01,2.36,14.9,16.66.28,23.12-18.21,8.05-52.26-4.14-65.2-20.1.1-.02,20.37-8.47,23.43-18.33Z" style="fill: #c97e67; stroke-width: 0px;"/>
          <path d="M467.56,147.87c-4.02-30.63-27.88-52.76-53.28-49.43-25.4,3.34-42.74,30.87-38.72,61.51,4.02,30.63,27.88,52.76,53.28,49.43,25.41-3.34,42.74-30.87,38.72-61.51Z" style="fill: #c97e67; stroke-width: 0px;"/>
          <path d="M195.55,685.17c7.53-82.86,24.79-201.34,64.31-295.16,9.16-21.74,12.97-29.9,20.11-41.77,5.75-9.55-4.54-30.55-20.78-40.56-15.23-9.39-38.96-7.86-42.71-3.21-6.38,7.91-13.19,23.06-23.79,47.12-36.83,83.6-58.89,191.6-67.83,330.84l70.68,2.74Z" style="fill: #c97e67; stroke-width: 0px;"/>
          <path d="M265.91,299.81s16.97-67.25,142.15-67.93c180.53-.98,163.82,164.9,180.52,416.99,0,0-177.83-25.15-346.25,11,0,0-15.62-257.31,23.58-360.07Z" style="fill: #e28569; stroke-width: 0px;"/>
          <path d="M191.6,324.86s28.56,58.29,92.42,51.93c61.25-6.11,196.47-25.12,244-32.95,47.52-7.83,68.06-29.59,68.06-29.59,0,0-58.11-65.51-144.15-79.49-8.08-1.32-16.47-2.3-25.16-2.86-14.59-.94-29.12.57-43.49.86-144.02,2.95-191.68,92.1-191.68,92.1Z" style="fill: #f4925d; stroke-width: 0px;"/>
          <path d="M433.6,87.76s19.6,1.47,28.9,19.1c9.31,17.64,8.9,50.41-17.35,47.25-26.25-3.16-14.14,50.25-41.02,53.18-26.87,2.93-63.41-52.7-47.45-93.36,15.96-40.66,76.91-26.18,76.91-26.18Z" style="fill: #33353b; stroke-width: 0px;"/>
          <path d="M404.14,85.25s-48.92-12.68-59.7,32.25c-4.07,16.95,4.9,56.65-31.84,66.87-34.55,9.62-42.31,28.3-24.82,51.81,11.26,15.14-48.1,17.25-13.72,81.38,30.7,57.25,215.8,49.25,235.59,10.71,19.79-38.54,11.74-90.27-22.77-96.41-34.51-6.14-13.12-35.86-42.57-39.78-16.96-2.26-20.52-26.45-7.29-40.17,13.23-13.72-32.89-66.68-32.89-66.68Z" style="fill: #33353b; stroke-width: 0px;"/>
          <path d="M462.23,247.95c-5.27-2.9-4.94-7.79-4.62-12.53.31-4.52.6-8.79-3.7-11.52-1.2-.76-2.31-1.42-3.38-2.07-7.11-4.24-11.02-6.57-10.15-21.17.54-9.01-4.71-10.3-12.65-12.24-5.78-1.41-12.96-3.18-19.81-8.62-8.6-6.84-7.84-20.68-2.65-30.81,4.87-9.5,15.64-19.16,29.95-15.11,6.55,1.85,12.05,1.18,16.35-1.98,9.76-7.17,10.36-24.88,10.37-25.05l1.12.03c0,.19-.14,4.64-1.53,10.09-1.29,5.06-3.95,11.91-9.29,15.84-4.6,3.38-10.43,4.11-17.32,2.16-8.95-2.53-21.17-.04-28.64,14.54-4.98,9.73-5.78,22.96,2.35,29.42,6.65,5.29,13.71,7.02,19.38,8.41,7.88,1.93,14.1,3.46,13.51,13.4-.83,13.91,2.65,15.99,9.6,20.13,1.08.64,2.2,1.31,3.41,2.08,4.86,3.1,4.53,7.9,4.21,12.55-.31,4.58-.61,8.91,4.04,11.46l-.54.99Z" style="fill: #fff; stroke-width: 0px;"/>
          <path d="M301.33,180.34c-.23,0-.44-.17-.48-.41-.04-.27.14-.52.4-.56.35-.06,34.86-6.15,34.86-35.52,0-31.21,10.26-40.87,10.69-41.27.2-.18.51-.17.69.03.18.2.17.51-.03.69-.03.02-2.62,2.44-5.18,8.61-2.37,5.71-5.19,15.88-5.19,31.93,0,30.21-35.32,36.43-35.68,36.49-.03,0-.05,0-.08,0Z" style="fill: #33353b; stroke-width: 0px;"/>
          <path d="M436.2,155.05c-5.01-2.46-10.84-.82-13.04,3.66-2.19,4.47.09,10.09,5.09,12.54,5.01,2.45,10.84.82,13.03-3.66,2.19-4.47-.09-10.09-5.09-12.54Z" style="fill: #c97e67; stroke-width: 0px;"/>
          <path d="M432.68,172.81c-3.81,0-6.78-1.55-6.96-1.65l.46-.86c.06.03,5.82,3.03,11.35.51l.41.89c-1.8.83-3.61,1.12-5.26,1.12Z" style="fill: #33353b; stroke-width: 0px;"/>
        </g>
        <g>
          <path d="M762.56,178.82l-10.54-34.03-3.07-9.91-18.05-58.26-2.37,57.95-1.42,34.78-.45,11.01c-.31,7.47-4.86,9.05-10.41,15.54-2.25,2.63-16.62,18.59-.31,25.79,20.32,8.98,58.32-4.62,72.76-22.43-.11-.02-22.73-9.45-26.14-20.45Z" style="fill: #c97e67; stroke-width: 0px;"/>
          <path d="M682.32,91.63c4.49-34.18,31.11-58.88,59.46-55.16,28.35,3.72,47.69,34.45,43.21,68.64-4.49,34.18-31.11,58.88-59.46,55.16-28.35-3.72-47.7-34.45-43.21-68.64Z" style="fill: #c97e67; stroke-width: 0px;"/>
          <path d="M704.5,76.63c-29.6,1.11-43.96-15.97-44.3-31.78-.44-20.28,12.33-38.24,27.2-30.7,14.87,7.54,8.49-10.95,22.78-12.91,26.72-3.67,31.73,15.33,53.6,16.26,28.84,1.22,61.72,49.27,37.55,84.35,0,0-73.46-26.09-96.83-25.22Z" style="fill: #33353b; stroke-width: 0px;"/>
          <path d="M678.15,56.18s31.63,30.45,27.46,47.59c-4.17,17.13-3.12,23.85,15.36,32.98,18.47,9.14,2.16,23.98,26.78,25.05,24.62,1.07,54.77-28.02,54.77-75.84,0-26.66-15.32-44.11-15.32-44.11l-109.04,14.32Z" style="fill: #33353b; stroke-width: 0px;"/>
          <path d="M985.87,691.21c-8.4-92.47-27.67-224.67-71.77-329.37-10.22-24.26-14.48-33.37-22.45-46.62-6.41-10.66,5.07-34.09,23.19-45.26,17-10.48,43.47-8.77,47.66-3.58,7.12,8.83,14.72,25.73,26.55,52.59,41.09,93.29,65.72,213.81,75.69,369.18l-78.87,3.05Z" style="fill: #c97e67; stroke-width: 0px;"/>
          <path d="M269.47,338.99c-13.31-13.11,16.33-48.98,16.33-48.98,5.09-3.57,89.88,76.79,187.04,45.99,34.6-10.97,82.44-71.53,85.89-80.53.46-1.2,76.62,26.34,76.62,26.34-6.25,16.29-13.47,67.83-50.71,102.11-77.04,70.91-243.94,50.85-315.17-44.92Z" style="fill: #c97e67; stroke-width: 0px;"/>
          <path d="M907.35,261.18s-18.93-75.04-158.63-75.8c-201.46-1.1-182.8,184.01-201.44,465.33,0,0,198.44-28.06,386.39,12.28,0,0,17.43-287.14-26.31-401.8Z" style="fill: #fff2e2; stroke-width: 0px;"/>
          <path d="M958.92,250.42l-91.24,50.48s-199.78,18.14-252.81,9.4c-53.03-8.74-67.58-47.68-67.58-47.68,0,0,56.49-58.44,152.49-74.05,9.02-1.48,18.38-2.56,28.08-3.19,16.28-1.05,32.59-.83,48.53.96,121.68,13.71,182.54,64.07,182.54,64.07Z" style="fill: #fff2e2; stroke-width: 0px;"/>
          <path d="M960.82,252.53c7.74,10.94-3.66,32.57-25.45,48.29-21.79,15.73-45.73,19.6-53.46,8.66-7.74-10.94,3.66-32.57,25.45-48.29,21.79-15.73,45.73-19.6,53.46-8.66Z" style="fill: #fff2e2; stroke-width: 0px;"/>
          <path d="M689.64,103c3.58-5.09,10.17-6.61,14.72-3.41,4.55,3.2,5.32,9.92,1.74,15.01-3.58,5.08-10.17,6.61-14.72,3.41-4.55-3.2-5.32-9.92-1.74-15.01Z" style="fill: #c97e67; stroke-width: 0px;"/>
          <path d="M813.2,115c-.35,0-.66-.24-.74-.6-1.44-6.46-7.59-10.15-7.65-10.18-.36-.21-.49-.68-.27-1.04.21-.36.68-.48,1.05-.27.28.16,6.79,4.06,8.36,11.17.09.41-.17.82-.58.91-.06.01-.11.02-.17.02Z" style="fill: #33353b; stroke-width: 0px;"/>
          <path d="M805.2,100.61c-.4,0-.74-.31-.76-.71-.03-.42.29-.78.71-.81.08,0,8.07-.59,9.21-6.77.08-.41.48-.69.89-.61.41.08.69.47.61.89-1.36,7.36-10.52,8.01-10.62,8.02-.02,0-.03,0-.05,0Z" style="fill: #33353b; stroke-width: 0px;"/>
          <path d="M691.89,12.93c-.52,0-1.06-.08-1.61-.25-2.47-.73-4.3-2-6.08-3.23-3.28-2.28-6.12-4.25-12.28-2.26-.4.13-.83-.09-.96-.49-.13-.4.09-.83.49-.96,6.88-2.22,10.31.16,13.62,2.45,1.68,1.16,3.41,2.36,5.64,3.03,1.13.34,2.12.21,3.01-.4,3.35-2.26,4.14-10.05,4.15-10.13.04-.42.41-.72.83-.69.42.04.73.41.69.83-.03.35-.87,8.59-4.81,11.25-.83.56-1.73.84-2.69.84Z" style="fill: #33353b; stroke-width: 0px;"/>
          <path d="M761.52,14.97c-10.48,0-18.63-7.6-19.01-7.95-.31-.29-.32-.77-.03-1.08.29-.31.77-.32,1.08-.03.1.09,9.79,9.11,21.09,7.29.41-.07.81.22.87.63.07.42-.22.81-.63.87-1.15.18-2.27.27-3.37.27Z" style="fill: #33353b; stroke-width: 0px;"/>
          <path d="M697.59,120.24c-1.23,0-2.04-.27-2.09-.28-.19-.07-.29-.27-.23-.47.06-.19.27-.29.47-.23.27.09,6.68,2.13,11.21-6.91.09-.18.31-.26.49-.16.18.09.25.31.16.49-2.51,5.01-5.65,6.73-7.84,7.29-.81.21-1.55.28-2.17.28Z" style="fill: #33353b; stroke-width: 0px;"/>
        </g>
        <g>
          <path d="M253.73,310.51l-.6.69c-2.08,2.43-5.77,2.71-8.2.62l-21.49-14.4c-2.43-2.08-11.73-16.51-12.57-20.19-.41-1.79.33-3.27.33-3.27,2.08-2.43,5.78-2.71,8.2-.62l33.71,28.96c2.43,2.08,2.71,5.78.62,8.2Z" style="fill: #c97e67; stroke-width: 0px;"/>
          <path d="M264.38,298.12l-.95,1.11c-1.99,2.31-5.5,2.58.4,12.28l-32.77-28.16c-10.53-13.68-10.79-17.19-8.8-19.5l.95-1.11c1.99-2.31,5.5-2.58,7.81-.59l38.23,24.87c2.31,1.99-2.88,8.79-4.87,11.1Z" style="fill: #c97e67; stroke-width: 0px;"/>
          <path d="M290.36,315.71l-2.19.42c-4.1.78-8.09-1.93-8.87-6.03l-7.63-39.92c-.78-4.1,1.93-8.09,6.02-8.87l2.19-.42c4.1-.78,8.09,1.93,8.87,6.02l7.63,39.92c.78,4.1-1.93,8.09-6.02,8.87Z" style="fill: #c97e67; stroke-width: 0px;"/>
          <path d="M275.05,285.69l-1.38,1.6c-1.87,2.18-5.18,2.43-7.36.56l-19.61-14.67c-2.18-1.87-3.45-8.23-1.58-10.41l1.38-1.6c1.87-2.18,5.18-2.43,7.36-.56l20.63,17.73c2.18,1.87,2.43,5.18.56,7.36Z" style="fill: #c97e67; stroke-width: 0px;"/>
          <path d="M269.47,338.99s-29.75-3.9-47.18-28.9c-18.18-26.06,27.68-42.81,37.23-40.31,9.56,2.5,32.09,26.03,32.09,26.03l-22.14,43.18Z" style="fill: #c97e67; stroke-width: 0px;"/>
          <path d="M243.42,322.58l-.68.8c-2.06,2.39-5.7,2.67-8.09.61l-29.09-24.99c-2.39-2.06-2.67-5.7-.61-8.09l.68-.8c2.06-2.39,15.42,2.47,17.81,4.53l19.36,19.85c2.39,2.06,2.67,5.69.61,8.09Z" style="fill: #c97e67; stroke-width: 0px;"/>
        </g>
        <path d="M262.34,281.86c-1.33,0-2.84-.57-4.13-1.68h0c-2.29-1.97-3.02-4.9-1.62-6.52,1.4-1.63,4.4-1.35,6.69.62,2.29,1.97,3.02,4.89,1.62,6.52-.61.71-1.53,1.06-2.57,1.06ZM258.88,279.4c1.83,1.57,4.23,1.9,5.24.73,1.01-1.18.32-3.5-1.51-5.07-1.83-1.57-4.23-1.9-5.24-.73-1.01,1.18-.32,3.5,1.51,5.07h0Z" style="fill: #b2604d; stroke-width: 0px;"/>
        <path d="M251.67,292.7c-1.33,0-2.84-.57-4.13-1.68h0c-2.29-1.97-3.02-4.9-1.62-6.52,1.4-1.63,4.4-1.35,6.69.62,2.29,1.97,3.02,4.89,1.62,6.52-.61.71-1.53,1.06-2.57,1.06ZM248.21,290.24c1.83,1.57,4.23,1.91,5.24.73,1.01-1.18.32-3.5-1.51-5.07-1.83-1.57-4.23-1.9-5.24-.73-1.01,1.18-.32,3.5,1.51,5.07h0Z" style="fill: #b2604d; stroke-width: 0px;"/>
        <path d="M242.95,305.39c-.18,0-.36-.01-.55-.03-1.23-.14-2.5-.73-3.58-1.66-2.29-1.97-3.02-4.89-1.62-6.52.7-.82,1.8-1.19,3.11-1.04,1.23.14,2.5.73,3.59,1.66,1.08.93,1.86,2.1,2.18,3.29.34,1.26.14,2.41-.56,3.23-.6.7-1.5,1.07-2.56,1.07ZM239.76,297.14c-.76,0-1.38.25-1.78.71-1.01,1.18-.32,3.5,1.51,5.07.93.8,2,1.3,3.03,1.42.95.11,1.74-.14,2.21-.69.47-.55.6-1.37.35-2.29-.27-1-.93-1.99-1.86-2.78s-2-1.3-3.03-1.42c-.15-.02-.29-.03-.43-.03Z" style="fill: #b2604d; stroke-width: 0px;"/>
        <path d="M236.23,318.53c-.18,0-.36-.01-.55-.03-1.23-.14-2.5-.73-3.58-1.66-2.29-1.97-3.02-4.9-1.62-6.52.7-.82,1.81-1.19,3.11-1.04,1.23.14,2.5.73,3.59,1.66,2.29,1.97,3.02,4.89,1.62,6.52-.6.7-1.5,1.07-2.56,1.07ZM233.05,310.27c-.76,0-1.38.25-1.78.71-1.01,1.18-.32,3.5,1.51,5.07.93.8,2,1.3,3.03,1.42.95.11,1.74-.14,2.21-.69,1.01-1.18.32-3.5-1.51-5.07-.93-.8-2-1.3-3.03-1.42-.15-.02-.29-.03-.43-.03Z" style="fill: #b2604d; stroke-width: 0px;"/>
      </g>
      <g>
        <path d="M1275.2,566.66c.11-52.09-3.79-126.93-22.98-187.7-4.45-14.08-6.35-19.39-10.12-27.2-3.03-6.29,4.6-18.78,15.3-24.08,10.04-4.97,24.07-4.59,26.81.48,3.03,5.6,6.89,15.14,12.1,30.75,18.11,54.25,25.6,122.84,23.11,210.15l-44.22-2.39Z" style="fill: #c97e67; stroke-width: 0px;"/>
        <path d="M1060.07,563.09c-.11-52.09,3.79-126.93,22.98-187.7,4.45-14.08,6.35-19.39,10.12-27.2,3.03-6.29-4.6-18.78-15.3-24.08-10.04-4.97-24.74-2.64-26.81.48-3.52,5.3-6.89,15.14-12.1,30.75-18.11,54.25-25.6,122.84-23.11,210.15l44.22-2.39Z" style="fill: #c97e67; stroke-width: 0px;"/>
        <path d="M1244.37,318.45s-11.17-31.69-84.93-32.14c-106.37-.65-76.38,89.07-105.19,261.89,0,0,93.37-33.58,204.02,7.24,0,0,9.21-169.36-13.89-237Z" style="fill: #436e8e; stroke-width: 0px;"/>
        <path d="M1185.05,283.3c-11.3,12.88-33.86,21.46-44.9,17.73-13.75-4.65-8.32-12.81-6.55-14.72,4.35-4.69,5.69-8.12,5.78-13.65l.02-1.34.11-6.8.2-12.79.2-12.93.66-42.86,15.88,43.52,2.7,7.41,3.81,10.45,5.47,14.97c3.01,8.23,16.53,11,16.62,11.02Z" style="fill: #c97e67; stroke-width: 0px;"/>
        <path d="M1287.31,328.24s-6.65,29.19-51.96,32.36c-40.66,2.85-125.95-1.41-160.23-6.36-18.57-2.69-34.37-18.89-34.37-18.89,0,0,13.71-54.48,129.68-52.67,78.9,1.23,116.89,45.56,116.89,45.56Z" style="fill: #f4925d; stroke-width: 0px;"/>
        <path d="M1107.15,207.4c3.43-26.09,24.96-44.77,48.1-41.73,23.14,3.04,39.12,26.65,35.7,52.73-3.42,26.08-24.96,44.77-48.1,41.73-23.14-3.04-39.12-26.65-35.7-52.73Z" style="fill: #c97e67; stroke-width: 0px;"/>
        <path d="M1097.99,176.99c3.56,4.77,8.14,10.03,19.76,7.79,11.63-2.24,14.49-8.02,14.49-8.02,0,0,4.32,8.6,14.91,7.88s11.96-5.04,11.96-5.04c0,0,1.38,9.68,10.73,11.91,9.36,2.24-5.7,13.74,10.4,16.02,11.63,1.65,6.11-25.85,14.01-38.6,10.57-17.06-12.57-40.82-24.04-31.6-7.51,6.03-14.22.1-31.26-1.26-20.42-1.64-13.24,15.33-21.47,13.69-18.77-3.74-29.78,13.43-19.49,27.23Z" style="fill: #33353b; stroke-width: 0px;"/>
        <path d="M1217.21,166.06c-.28,0-.56-.13-.73-.38-3.7-5.25-9.73-4.16-9.98-4.11-.48.09-.95-.22-1.05-.71-.09-.48.22-.95.7-1.05.3-.06,7.4-1.38,11.79,4.83.28.4.19.96-.22,1.25-.16.11-.34.16-.51.16Z" style="fill: #33353b; stroke-width: 0px;"/>
        <path d="M1203.91,158.18c-.07,0-.15,0-.22-.03-.48-.12-.77-.61-.65-1.09,1.21-4.71-1.31-9.25-1.33-9.3-.24-.43-.09-.98.34-1.22s.98-.09,1.22.34c.12.21,2.89,5.22,1.5,10.62-.1.41-.47.67-.87.67Z" style="fill: #33353b; stroke-width: 0px;"/>
        <path d="M1117.86,147.58c-.15,0-.29-.04-.43-.11-.12-.06-11.72-6.32-22.53-2.62-.47.16-.98-.09-1.14-.56-.16-.47.09-.98.56-1.14,11.57-3.96,23.47,2.47,23.97,2.75.43.24.59.78.35,1.21-.16.3-.47.46-.78.46Z" style="fill: #33353b; stroke-width: 0px;"/>
        <path d="M1109.51,179.71s-15.46,17.03,4.22,24.71c0,0-3.53,22.02,16.81,16.9,0,0-2.13,31.58,26.26,38.67,15.47,3.86,34.79-9.28,44.22-25.15,9.74-16.39,6.43-33.21,6.43-33.21,0,0,7.62-5.69,2.4-26.6-2.75-11.02-19.85-14.75-19.85-14.75l-84.36,19.43h3.87Z" style="fill: #33353b; stroke-width: 0px;"/>
        <path d="M1158.05,136.18c-.29,0-.58-.15-.75-.41-.02-.03-2.18-3.35-5.95-5.48-.43-.24-.58-.79-.34-1.22.24-.43.79-.58,1.22-.34,4.17,2.35,6.48,5.92,6.57,6.07.26.42.14.97-.27,1.23-.15.1-.32.14-.48.14Z" style="fill: #33353b; stroke-width: 0px;"/>
        <path d="M1113.73,218.25s4.92-12.55,14.13-8.35c9.22,4.2,5.07,14.5-2,15.88-7.07,1.38-12.14-7.53-12.14-7.53Z" style="fill: #c97e67; stroke-width: 0px;"/>
        <path d="M1123.27,226.59c-.86,0-1.81-.07-2.86-.22-.25-.04-.43-.27-.39-.52.04-.25.27-.42.52-.39,7.97,1.15,10-2.85,10.09-3.02.11-.23.38-.32.61-.22.23.11.33.38.22.61-.08.17-1.85,3.75-8.2,3.75Z" style="fill: #33353b; stroke-width: 0px;"/>
      </g>
      <g>
        <path d="M92.04,516.89s-59.13-16.16-86.78,10.17c-27.65,26.33,61.87,160.6,75.04,214.58,13.16,53.97,43.55,80.08,111.9,80.08s-100.16-304.82-100.16-304.82Z" style="fill: #ff929f; stroke-width: 0px;"/>
        <path d="M1308.31,516.89s59.13-16.16,86.77,10.17c27.65,26.33-61.87,160.6-75.04,214.58-13.16,53.97-43.55,80.08-111.9,80.08s100.16-304.82,100.16-304.82Z" style="fill: #ff929f; stroke-width: 0px;"/>
        <g>
          <path d="M1184.78,912.78h0c4.65-.06,7.99-7.04,6.82-13.46l-19.62-108.31h-25.23l31.26,114.83c1.16,4.24,3.83,6.98,6.77,6.94Z" style="fill: #33353b; stroke-width: 0px;"/>
          <path d="M1172.55,794.22s-13.74-1.92-22.22,10l-3.6-13.21,25.1-1.38.72,4.59Z" style="fill: #33353b; stroke-width: 0px;"/>
        </g>
        <g>
          <path d="M230.88,912.78h0c-4.65-.06-7.99-7.04-6.82-13.46l19.63-108.31h25.23l-31.27,114.83c-1.15,4.24-3.83,6.98-6.77,6.94Z" style="fill: #33353b; stroke-width: 0px;"/>
          <path d="M243.1,794.22s13.74-1.92,22.22,10l3.6-13.21-25.1-1.38-.71,4.59Z" style="fill: #33353b; stroke-width: 0px;"/>
        </g>
        <path d="M1326.84,434.4l-4.77,32.7-38.27,262.3c-7.78,53.33-47.1,92.32-93.11,92.32H204.12c-46.01,0-85.32-38.98-93.11-92.32l-38.27-262.29-4.77-32.71c-5.98-41.03,36.29-84.27,93.95-78.6,325.41,31.95,748.99,3.17,1039.78-3.03,23.17-.49,44.76-.04,68.86,3.12,35.09,4.61,62.26,37.48,56.27,78.51Z" style="fill: #ff929f; stroke-width: 0px;"/>
        <path d="M1322.06,467.1c8.04,65.78-48.68,138.44-38.27,262.3,4.51,53.71-47.1,92.32-93.11,92.32H204.12c-46.01,0-90.85-38.47-93.11-92.32-6.76-161.6-46.3-196.51-38.27-262.29,2.92-23.94,28.52-38.14,51.5-38.14h1146.33c22.99,0,48.57,14.2,51.49,38.13Z" style="fill: #f9698c; stroke-width: 0px;"/>
      </g>
    </g>
  </g>
</svg>