<?xml version="1.0" encoding="utf-8"?>
<!-- Generator: Adobe Illustrator 28.1.0, SVG Export Plug-In . SVG Version: 6.00 Build 0)  -->
<svg version="1.1" id="Layer_2_00000165217863724688463920000013026251648096814491_"
	 xmlns="http://www.w3.org/2000/svg" xmlns:xlink="http://www.w3.org/1999/xlink" x="0px" y="0px" viewBox="0 0 1400.3 912.8"
	 style="enable-background:new 0 0 1400.3 912.8;" xml:space="preserve">
<style type="text/css">
	.st0{fill:#C97E67;}
	.st1{fill:#E28569;}
	.st2{fill:#F9698C;}
	.st3{fill:#33353B;}
	.st4{fill:#FFFFFF;}
	.st5{fill:#FFF2E2;}
	.st6{fill:#B2604D;}
	.st7{fill:#436E8E;}
	.st8{fill:#F9E382;}
	.st9{fill:#FFDC4A;}
</style>
<g id="_Layer_">
	<g>
		<g>
			<g>
				<path class="st0" d="M581,301.5c0,0,17.6,34.1,17,86.2c-0.7,52.1-60.7,20.2-60.7,20.2s-2-68.6,0-70.5
					C539.2,335.5,581,301.5,581,301.5L581,301.5z"/>
				<path class="st0" d="M395.7,226l9.5-30.5l2.8-8.9l16.2-52.2l2.1,51.9l1.3,31.2l0.4,9.9c0.3,6.7,4.4,8.1,9.3,13.9
					c2,2.4,14.9,16.7,0.3,23.1c-18.2,8-52.3-4.1-65.2-20.1C372.3,244.3,392.6,235.9,395.7,226L395.7,226z"/>
				<path class="st0" d="M467.6,147.9c-4-30.6-27.9-52.8-53.3-49.4c-25.4,3.3-42.7,30.9-38.7,61.5c4,30.6,27.9,52.8,53.3,49.4
					C454.2,206,471.6,178.5,467.6,147.9L467.6,147.9z"/>
				<path class="st0" d="M195.6,685.2c7.5-82.9,24.8-201.3,64.3-295.2c9.2-21.7,13-29.9,20.1-41.8c5.8-9.5-4.5-30.5-20.8-40.6
					c-15.2-9.4-39-7.9-42.7-3.2c-6.4,7.9-13.2,23.1-23.8,47.1c-36.8,83.6-58.9,191.6-67.8,330.8L195.6,685.2L195.6,685.2z"/>
				<path class="st1" d="M265.9,299.8c0,0,17-67.2,142.1-67.9c180.5-1,163.8,164.9,180.5,417c0,0-177.8-25.2-346.2,11
					C242.3,659.9,226.7,402.6,265.9,299.8L265.9,299.8z"/>
				<path class="st2" d="M191.6,324.9c0,0,28.6,58.3,92.4,51.9c61.2-6.1,196.5-25.1,244-33c47.5-7.8,68.1-29.6,68.1-29.6
					s-58.1-65.5-144.1-79.5c-8.1-1.3-16.5-2.3-25.2-2.9c-14.6-0.9-29.1,0.6-43.5,0.9C239.3,235.7,191.6,324.9,191.6,324.9
					L191.6,324.9z"/>
				<path class="st3" d="M433.6,87.8c0,0,19.6,1.5,28.9,19.1c9.3,17.6,8.9,50.4-17.4,47.2s-14.1,50.2-41,53.2
					c-26.9,2.9-63.4-52.7-47.5-93.4S433.6,87.8,433.6,87.8L433.6,87.8z"/>
				<path class="st3" d="M404.1,85.2c0,0-48.9-12.7-59.7,32.2c-4.1,16.9,4.9,56.6-31.8,66.9c-34.5,9.6-42.3,28.3-24.8,51.8
					c11.3,15.1-48.1,17.2-13.7,81.4c30.7,57.2,215.8,49.2,235.6,10.7s11.7-90.3-22.8-96.4c-34.5-6.1-13.1-35.9-42.6-39.8
					c-17-2.3-20.5-26.4-7.3-40.2C450.2,138.2,404.1,85.2,404.1,85.2L404.1,85.2z"/>
				<path class="st4" d="M462.2,247.9c-5.3-2.9-4.9-7.8-4.6-12.5c0.3-4.5,0.6-8.8-3.7-11.5c-1.2-0.8-2.3-1.4-3.4-2.1
					c-7.1-4.2-11-6.6-10.1-21.2c0.5-9-4.7-10.3-12.6-12.2c-5.8-1.4-13-3.2-19.8-8.6c-8.6-6.8-7.8-20.7-2.6-30.8
					c4.9-9.5,15.6-19.2,30-15.1c6.5,1.9,12,1.2,16.4-2c9.8-7.2,10.4-24.9,10.4-25.1l1.1,0c0,0.2-0.1,4.6-1.5,10.1
					c-1.3,5.1-4,11.9-9.3,15.8c-4.6,3.4-10.4,4.1-17.3,2.2c-9-2.5-21.2,0-28.6,14.5c-5,9.7-5.8,23,2.4,29.4c6.6,5.3,13.7,7,19.4,8.4
					c7.9,1.9,14.1,3.5,13.5,13.4c-0.8,13.9,2.6,16,9.6,20.1c1.1,0.6,2.2,1.3,3.4,2.1c4.9,3.1,4.5,7.9,4.2,12.6
					c-0.3,4.6-0.6,8.9,4,11.5L462.2,247.9L462.2,247.9z"/>
				<path class="st3" d="M301.3,180.3c-0.2,0-0.4-0.2-0.5-0.4c0-0.3,0.1-0.5,0.4-0.6c0.4-0.1,34.9-6.1,34.9-35.5
					c0-31.2,10.3-40.9,10.7-41.3c0.2-0.2,0.5-0.2,0.7,0s0.2,0.5,0,0.7c0,0-2.6,2.4-5.2,8.6c-2.4,5.7-5.2,15.9-5.2,31.9
					C337.1,174,301.8,180.3,301.3,180.3C301.4,180.3,301.4,180.3,301.3,180.3L301.3,180.3z"/>
				<path class="st0" d="M436.2,155.1c-5-2.5-10.8-0.8-13,3.7c-2.2,4.5,0.1,10.1,5.1,12.5c5,2.4,10.8,0.8,13-3.7
					C443.5,163.1,441.2,157.5,436.2,155.1L436.2,155.1z"/>
				<path class="st3" d="M432.7,172.8c-3.8,0-6.8-1.6-7-1.6l0.5-0.9c0.1,0,5.8,3,11.4,0.5l0.4,0.9
					C436.1,172.5,434.3,172.8,432.7,172.8L432.7,172.8z"/>
			</g>
			<g>
				<path class="st0" d="M762.6,178.8l-10.5-34l-3.1-9.9l-18-58.3l-2.4,57.9l-1.4,34.8l-0.5,11c-0.3,7.5-4.9,9.1-10.4,15.5
					c-2.2,2.6-16.6,18.6-0.3,25.8c20.3,9,58.3-4.6,72.8-22.4C788.6,199.2,766,189.8,762.6,178.8L762.6,178.8z"/>
				<path class="st0" d="M682.3,91.6c4.5-34.2,31.1-58.9,59.5-55.2c28.3,3.7,47.7,34.5,43.2,68.6c-4.5,34.2-31.1,58.9-59.5,55.2
					C697.2,156.6,677.8,125.8,682.3,91.6z"/>
				<path class="st3" d="M704.5,76.6c-29.6,1.1-44-16-44.3-31.8c-0.4-20.3,12.3-38.2,27.2-30.7s8.5-10.9,22.8-12.9
					c26.7-3.7,31.7,15.3,53.6,16.3c28.8,1.2,61.7,49.3,37.5,84.3C801.3,101.8,727.9,75.8,704.5,76.6z"/>
				<path class="st3" d="M678.2,56.2c0,0,31.6,30.5,27.5,47.6c-4.2,17.1-3.1,23.8,15.4,33c18.5,9.1,2.2,24,26.8,25.1
					c24.6,1.1,54.8-28,54.8-75.8c0-26.7-15.3-44.1-15.3-44.1L678.2,56.2L678.2,56.2z"/>
				<path class="st0" d="M985.9,691.2c-8.4-92.5-27.7-224.7-71.8-329.4c-10.2-24.3-14.5-33.4-22.5-46.6
					c-6.4-10.7,5.1-34.1,23.2-45.3c17-10.5,43.5-8.8,47.7-3.6c7.1,8.8,14.7,25.7,26.5,52.6c41.1,93.3,65.7,213.8,75.7,369.2
					L985.9,691.2L985.9,691.2z"/>
				<path class="st0" d="M269.5,339c-13.3-13.1,16.3-49,16.3-49c5.1-3.6,89.9,76.8,187,46c34.6-11,82.4-71.5,85.9-80.5
					c0.5-1.2,76.6,26.3,76.6,26.3c-6.2,16.3-13.5,67.8-50.7,102.1C507.6,454.8,340.7,434.8,269.5,339L269.5,339z"/>
				<path class="st5" d="M907.3,261.2c0,0-18.9-75-158.6-75.8c-201.5-1.1-182.8,184-201.4,465.3c0,0,198.4-28.1,386.4,12.3
					C933.7,663,951.1,375.8,907.3,261.2L907.3,261.2z"/>
				<path class="st5" d="M958.9,250.4l-91.2,50.5c0,0-199.8,18.1-252.8,9.4s-67.6-47.7-67.6-47.7s56.5-58.4,152.5-74.1
					c9-1.5,18.4-2.6,28.1-3.2c16.3-1.1,32.6-0.8,48.5,1C898.1,200.1,958.9,250.4,958.9,250.4L958.9,250.4z"/>
				<path class="st5" d="M960.8,252.5c7.7,10.9-3.7,32.6-25.5,48.3c-21.8,15.7-45.7,19.6-53.5,8.7c-7.7-10.9,3.7-32.6,25.5-48.3
					C929.1,245.5,953.1,241.6,960.8,252.5z"/>
				<path class="st0" d="M689.6,103c3.6-5.1,10.2-6.6,14.7-3.4s5.3,9.9,1.7,15c-3.6,5.1-10.2,6.6-14.7,3.4S686.1,108.1,689.6,103z"
					/>
				<path class="st3" d="M813.2,115c-0.3,0-0.7-0.2-0.7-0.6c-1.4-6.5-7.6-10.2-7.7-10.2c-0.4-0.2-0.5-0.7-0.3-1
					c0.2-0.4,0.7-0.5,1-0.3c0.3,0.2,6.8,4.1,8.4,11.2c0.1,0.4-0.2,0.8-0.6,0.9C813.3,115,813.3,115,813.2,115L813.2,115z"/>
				<path class="st3" d="M805.2,100.6c-0.4,0-0.7-0.3-0.8-0.7c0-0.4,0.3-0.8,0.7-0.8c0.1,0,8.1-0.6,9.2-6.8c0.1-0.4,0.5-0.7,0.9-0.6
					c0.4,0.1,0.7,0.5,0.6,0.9C814.5,100,805.3,100.6,805.2,100.6C805.2,100.6,805.2,100.6,805.2,100.6L805.2,100.6z"/>
				<path class="st3" d="M691.9,12.9c-0.5,0-1.1-0.1-1.6-0.2c-2.5-0.7-4.3-2-6.1-3.2c-3.3-2.3-6.1-4.2-12.3-2.3
					c-0.4,0.1-0.8-0.1-1-0.5c-0.1-0.4,0.1-0.8,0.5-1c6.9-2.2,10.3,0.2,13.6,2.4c1.7,1.2,3.4,2.4,5.6,3c1.1,0.3,2.1,0.2,3-0.4
					c3.3-2.3,4.1-10.1,4.2-10.1c0-0.4,0.4-0.7,0.8-0.7c0.4,0,0.7,0.4,0.7,0.8c0,0.4-0.9,8.6-4.8,11.2
					C693.8,12.6,692.9,12.9,691.9,12.9L691.9,12.9z"/>
				<path class="st3" d="M761.5,15c-10.5,0-18.6-7.6-19-7.9c-0.3-0.3-0.3-0.8,0-1.1s0.8-0.3,1.1,0c0.1,0.1,9.8,9.1,21.1,7.3
					c0.4-0.1,0.8,0.2,0.9,0.6c0.1,0.4-0.2,0.8-0.6,0.9C763.7,14.9,762.6,15,761.5,15z"/>
				<path class="st3" d="M697.6,120.2c-1.2,0-2-0.3-2.1-0.3c-0.2-0.1-0.3-0.3-0.2-0.5c0.1-0.2,0.3-0.3,0.5-0.2
					c0.3,0.1,6.7,2.1,11.2-6.9c0.1-0.2,0.3-0.3,0.5-0.2c0.2,0.1,0.2,0.3,0.2,0.5c-2.5,5-5.7,6.7-7.8,7.3
					C698.9,120.2,698.2,120.2,697.6,120.2L697.6,120.2z"/>
			</g>
			<g>
				<path class="st0" d="M253.7,310.5l-0.6,0.7c-2.1,2.4-5.8,2.7-8.2,0.6l-21.5-14.4c-2.4-2.1-11.7-16.5-12.6-20.2
					c-0.4-1.8,0.3-3.3,0.3-3.3c2.1-2.4,5.8-2.7,8.2-0.6l33.7,29C255.5,304.4,255.8,308.1,253.7,310.5L253.7,310.5z"/>
				<path class="st0" d="M264.4,298.1l-1,1.1c-2,2.3-5.5,2.6,0.4,12.3l-32.8-28.2c-10.5-13.7-10.8-17.2-8.8-19.5l0.9-1.1
					c2-2.3,5.5-2.6,7.8-0.6l38.2,24.9C271.6,289,266.4,295.8,264.4,298.1L264.4,298.1z"/>
				<path class="st0" d="M290.4,315.7l-2.2,0.4c-4.1,0.8-8.1-1.9-8.9-6l-7.6-39.9c-0.8-4.1,1.9-8.1,6-8.9l2.2-0.4
					c4.1-0.8,8.1,1.9,8.9,6l7.6,39.9C297.2,310.9,294.4,314.9,290.4,315.7L290.4,315.7z"/>
				<path class="st0" d="M275,285.7l-1.4,1.6c-1.9,2.2-5.2,2.4-7.4,0.6l-19.6-14.7c-2.2-1.9-3.4-8.2-1.6-10.4l1.4-1.6
					c1.9-2.2,5.2-2.4,7.4-0.6l20.6,17.7C276.7,280.2,276.9,283.5,275,285.7L275,285.7z"/>
				<path class="st0" d="M269.5,339c0,0-29.8-3.9-47.2-28.9c-18.2-26.1,27.7-42.8,37.2-40.3c9.6,2.5,32.1,26,32.1,26L269.5,339
					L269.5,339z"/>
				<path class="st0" d="M243.4,322.6l-0.7,0.8c-2.1,2.4-5.7,2.7-8.1,0.6l-29.1-25c-2.4-2.1-2.7-5.7-0.6-8.1l0.7-0.8
					c2.1-2.4,15.4,2.5,17.8,4.5l19.4,19.9C245.2,316.5,245.5,320.2,243.4,322.6L243.4,322.6z"/>
			</g>
			<path class="st6" d="M262.3,281.9c-1.3,0-2.8-0.6-4.1-1.7l0,0c-2.3-2-3-4.9-1.6-6.5c1.4-1.6,4.4-1.4,6.7,0.6s3,4.9,1.6,6.5
				C264.3,281.5,263.4,281.9,262.3,281.9L262.3,281.9z M258.9,279.4c1.8,1.6,4.2,1.9,5.2,0.7c1-1.2,0.3-3.5-1.5-5.1
				c-1.8-1.6-4.2-1.9-5.2-0.7C256.4,275.5,257,277.8,258.9,279.4L258.9,279.4z"/>
			<path class="st6" d="M251.7,292.7c-1.3,0-2.8-0.6-4.1-1.7l0,0c-2.3-2-3-4.9-1.6-6.5c1.4-1.6,4.4-1.4,6.7,0.6c2.3,2,3,4.9,1.6,6.5
				C253.6,292.4,252.7,292.7,251.7,292.7L251.7,292.7z M248.2,290.2c1.8,1.6,4.2,1.9,5.2,0.7c1-1.2,0.3-3.5-1.5-5.1
				s-4.2-1.9-5.2-0.7C245.7,286.3,246.4,288.7,248.2,290.2L248.2,290.2z"/>
			<path class="st6" d="M242.9,305.4c-0.2,0-0.4,0-0.6,0c-1.2-0.1-2.5-0.7-3.6-1.7c-2.3-2-3-4.9-1.6-6.5c0.7-0.8,1.8-1.2,3.1-1
				c1.2,0.1,2.5,0.7,3.6,1.7c1.1,0.9,1.9,2.1,2.2,3.3c0.3,1.3,0.1,2.4-0.6,3.2C244.9,305,244,305.4,242.9,305.4L242.9,305.4z
				 M239.8,297.1c-0.8,0-1.4,0.2-1.8,0.7c-1,1.2-0.3,3.5,1.5,5.1c0.9,0.8,2,1.3,3,1.4c0.9,0.1,1.7-0.1,2.2-0.7s0.6-1.4,0.4-2.3
				c-0.3-1-0.9-2-1.9-2.8s-2-1.3-3-1.4C240,297.1,239.9,297.1,239.8,297.1L239.8,297.1z"/>
			<path class="st6" d="M236.2,318.5c-0.2,0-0.4,0-0.6,0c-1.2-0.1-2.5-0.7-3.6-1.7c-2.3-2-3-4.9-1.6-6.5c0.7-0.8,1.8-1.2,3.1-1
				c1.2,0.1,2.5,0.7,3.6,1.7c2.3,2,3,4.9,1.6,6.5C238.2,318.2,237.3,318.5,236.2,318.5L236.2,318.5z M233.1,310.3
				c-0.8,0-1.4,0.2-1.8,0.7c-1,1.2-0.3,3.5,1.5,5.1c0.9,0.8,2,1.3,3,1.4c0.9,0.1,1.7-0.1,2.2-0.7c1-1.2,0.3-3.5-1.5-5.1
				c-0.9-0.8-2-1.3-3-1.4C233.3,310.3,233.2,310.3,233.1,310.3L233.1,310.3z"/>
		</g>
		<g>
			<path class="st0" d="M1275.2,566.7c0.1-52.1-3.8-126.9-23-187.7c-4.4-14.1-6.3-19.4-10.1-27.2c-3-6.3,4.6-18.8,15.3-24.1
				c10-5,24.1-4.6,26.8,0.5c3,5.6,6.9,15.1,12.1,30.8c18.1,54.2,25.6,122.8,23.1,210.1L1275.2,566.7L1275.2,566.7z"/>
			<path class="st0" d="M1060.1,563.1c-0.1-52.1,3.8-126.9,23-187.7c4.4-14.1,6.3-19.4,10.1-27.2c3-6.3-4.6-18.8-15.3-24.1
				c-10-5-24.7-2.6-26.8,0.5c-3.5,5.3-6.9,15.1-12.1,30.8c-18.1,54.2-25.6,122.8-23.1,210.1L1060.1,563.1L1060.1,563.1z"/>
			<path class="st7" d="M1244.4,318.5c0,0-11.2-31.7-84.9-32.1c-106.4-0.6-76.4,89.1-105.2,261.9c0,0,93.4-33.6,204,7.2
				C1258.3,555.4,1267.5,386.1,1244.4,318.5L1244.4,318.5z"/>
			<path class="st0" d="M1185.1,283.3c-11.3,12.9-33.9,21.5-44.9,17.7c-13.8-4.6-8.3-12.8-6.6-14.7c4.3-4.7,5.7-8.1,5.8-13.6l0-1.3
				l0.1-6.8l0.2-12.8l0.2-12.9l0.7-42.9l15.9,43.5l2.7,7.4l3.8,10.5l5.5,15C1171.4,280.5,1185,283.3,1185.1,283.3L1185.1,283.3z"/>
			<path class="st2" d="M1287.3,328.2c0,0-6.7,29.2-52,32.4c-40.7,2.9-125.9-1.4-160.2-6.4c-18.6-2.7-34.4-18.9-34.4-18.9
				s13.7-54.5,129.7-52.7C1249.3,283.9,1287.3,328.2,1287.3,328.2L1287.3,328.2z"/>
			<path class="st0" d="M1107.2,207.4c3.4-26.1,25-44.8,48.1-41.7c23.1,3,39.1,26.6,35.7,52.7s-25,44.8-48.1,41.7
				C1119.7,257.1,1103.7,233.5,1107.2,207.4L1107.2,207.4z"/>
			<path class="st3" d="M1098,177c3.6,4.8,8.1,10,19.8,7.8c11.6-2.2,14.5-8,14.5-8s4.3,8.6,14.9,7.9s12-5,12-5s1.4,9.7,10.7,11.9
				c9.4,2.2-5.7,13.7,10.4,16c11.6,1.6,6.1-25.9,14-38.6c10.6-17.1-12.6-40.8-24-31.6c-7.5,6-14.2,0.1-31.3-1.3
				c-20.4-1.6-13.2,15.3-21.5,13.7C1098.7,146,1087.7,163.2,1098,177L1098,177z"/>
			<path class="st3" d="M1217.2,166.1c-0.3,0-0.6-0.1-0.7-0.4c-3.7-5.2-9.7-4.2-10-4.1c-0.5,0.1-0.9-0.2-1.1-0.7
				c-0.1-0.5,0.2-0.9,0.7-1.1c0.3-0.1,7.4-1.4,11.8,4.8c0.3,0.4,0.2,1-0.2,1.2C1217.6,166,1217.4,166,1217.2,166.1L1217.2,166.1z"/>
			<path class="st3" d="M1203.9,158.2c-0.1,0-0.2,0-0.2,0c-0.5-0.1-0.8-0.6-0.7-1.1c1.2-4.7-1.3-9.2-1.3-9.3c-0.2-0.4-0.1-1,0.3-1.2
				s1-0.1,1.2,0.3c0.1,0.2,2.9,5.2,1.5,10.6C1204.7,157.9,1204.3,158.2,1203.9,158.2L1203.9,158.2z"/>
			<path class="st3" d="M1117.9,147.6c-0.2,0-0.3,0-0.4-0.1c-0.1-0.1-11.7-6.3-22.5-2.6c-0.5,0.2-1-0.1-1.1-0.6s0.1-1,0.6-1.1
				c11.6-4,23.5,2.5,24,2.8c0.4,0.2,0.6,0.8,0.3,1.2C1118.5,147.4,1118.2,147.6,1117.9,147.6L1117.9,147.6z"/>
			<path class="st3" d="M1109.5,179.7c0,0-15.5,17,4.2,24.7c0,0-3.5,22,16.8,16.9c0,0-2.1,31.6,26.3,38.7
				c15.5,3.9,34.8-9.3,44.2-25.1c9.7-16.4,6.4-33.2,6.4-33.2s7.6-5.7,2.4-26.6c-2.8-11-19.8-14.8-19.8-14.8l-84.4,19.4L1109.5,179.7
				L1109.5,179.7z"/>
			<path class="st3" d="M1158.1,136.2c-0.3,0-0.6-0.1-0.8-0.4c0,0-2.2-3.4-5.9-5.5c-0.4-0.2-0.6-0.8-0.3-1.2
				c0.2-0.4,0.8-0.6,1.2-0.3c4.2,2.4,6.5,5.9,6.6,6.1c0.3,0.4,0.1,1-0.3,1.2C1158.4,136.1,1158.2,136.2,1158.1,136.2L1158.1,136.2z"
				/>
			<path class="st0" d="M1113.7,218.2c0,0,4.9-12.6,14.1-8.4c9.2,4.2,5.1,14.5-2,15.9S1113.7,218.2,1113.7,218.2L1113.7,218.2z"/>
			<path class="st3" d="M1123.3,226.6c-0.9,0-1.8-0.1-2.9-0.2c-0.2,0-0.4-0.3-0.4-0.5s0.3-0.4,0.5-0.4c8,1.1,10-2.9,10.1-3
				c0.1-0.2,0.4-0.3,0.6-0.2c0.2,0.1,0.3,0.4,0.2,0.6C1131.4,223,1129.6,226.6,1123.3,226.6L1123.3,226.6z"/>
		</g>
		<g>
			<path class="st8" d="M92,516.9c0,0-59.1-16.2-86.8,10.2c-27.6,26.3,61.9,160.6,75,214.6c13.2,54,43.6,80.1,111.9,80.1
				S92,516.9,92,516.9L92,516.9z"/>
			<path class="st8" d="M1308.3,516.9c0,0,59.1-16.2,86.8,10.2c27.7,26.3-61.9,160.6-75,214.6c-13.2,54-43.6,80.1-111.9,80.1
				S1308.3,516.9,1308.3,516.9L1308.3,516.9z"/>
			<g>
				<path class="st3" d="M1184.8,912.8L1184.8,912.8c4.7-0.1,8-7,6.8-13.5L1172,791h-25.2l31.3,114.8
					C1179.2,910.1,1181.8,912.8,1184.8,912.8z"/>
				<path class="st3" d="M1172.6,794.2c0,0-13.7-1.9-22.2,10l-3.6-13.2l25.1-1.4L1172.6,794.2z"/>
			</g>
			<g>
				<path class="st3" d="M230.9,912.8L230.9,912.8c-4.6-0.1-8-7-6.8-13.5L243.7,791h25.2l-31.3,114.8
					C236.5,910.1,233.8,912.8,230.9,912.8z"/>
				<path class="st3" d="M243.1,794.2c0,0,13.7-1.9,22.2,10l3.6-13.2l-25.1-1.4L243.1,794.2L243.1,794.2z"/>
			</g>
			<path class="st8" d="M1326.8,434.4l-4.8,32.7l-38.3,262.3c-7.8,53.3-47.1,92.3-93.1,92.3H204.1c-46,0-85.3-39-93.1-92.3
				L72.7,467.1L68,434.4c-6-41,36.3-84.3,93.9-78.6c325.4,32,749,3.2,1039.8-3c23.2-0.5,44.8,0,68.9,3.1
				C1305.6,360.5,1332.8,393.4,1326.8,434.4L1326.8,434.4z"/>
			<path class="st9" d="M1322.1,467.1c8,65.8-48.7,138.4-38.3,262.3c4.5,53.7-47.1,92.3-93.1,92.3H204.1c-46,0-90.8-38.5-93.1-92.3
				c-6.8-161.6-46.3-196.5-38.3-262.3c2.9-23.9,28.5-38.1,51.5-38.1h1146.3C1293.6,429,1319.1,443.2,1322.1,467.1L1322.1,467.1z"/>
		</g>
	</g>
</g>
</svg>
