<?xml version="1.0" encoding="utf-8"?>
<!-- Generator: Adobe Illustrator 28.1.0, SVG Export Plug-In . SVG Version: 6.00 Build 0)  -->
<svg version="1.1" id="Layer_1" xmlns="http://www.w3.org/2000/svg" xmlns:xlink="http://www.w3.org/1999/xlink" x="0px" y="0px"
	 viewBox="0 0 44.6 44.6" style="enable-background:new 0 0 44.6 44.6;" xml:space="preserve">
<style type="text/css">
	.st0{fill:#FFFFFF;}
</style>
<g>
	<path class="st0" d="M22.3,4.7c-0.6,0-1.1,0.5-1.1,1.1s0.5,1.1,1.1,1.1c4.1,0,8,1.6,10.9,4.5s4.5,6.8,4.5,10.9
		c0,4-1.6,7.9-4.4,10.7V30c0-0.6-0.5-1.1-1.1-1.1c-0.6,0-1.1,0.5-1.1,1.1v6.6h6.6c0.6,0,1.1-0.5,1.1-1.1s-0.5-1.1-1.1-1.1h-2.6
		c3.1-3.3,4.8-7.6,4.8-12.1c0-4.7-1.8-9.1-5.1-12.5S27,4.7,22.3,4.7z"/>
	<path class="st0" d="M9.8,34.7c3.3,3.3,7.7,5.1,12.5,5.1c0.6,0,1.1-0.5,1.1-1.1s-0.5-1.1-1.1-1.1c-4.1,0-8-1.6-10.9-4.5
		s-4.5-6.8-4.5-10.9c0-4,1.6-7.9,4.4-10.7v3.1c0,0.6,0.5,1.1,1.1,1.1c0.6,0,1.1-0.5,1.1-1.1V8H6.9C6.3,8,5.8,8.5,5.8,9.1
		s0.5,1.1,1.1,1.1h2.6c-3.1,3.2-4.8,7.5-4.8,12.1C4.7,26.9,6.5,31.4,9.8,34.7z"/>
</g>
</svg>
